<svg xmlns="http://www.w3.org/2000/svg" viewBox="0 0 64 64">
  <defs>
    <!-- Cyan gradient -->
    <linearGradient id="cyan" x1="0" y1="0" x2="1" y2="1">
      <stop offset="0%" stop-color="#00FFFF"></stop>
      <stop offset="100%" stop-color="#00B8FF"></stop>
    </linearGradient>

    <!-- Neon glow -->
    <filter id="glow" x="-50%" y="-50%" width="200%" height="200%">
      <feGaussianBlur stdDeviation="1.8" result="blur"></feGaussianBlur>
      <feMerge>
        <feMergeNode in="blur"></feMergeNode>
        <feMergeNode in="SourceGraphic"></feMergeNode>
      </feMerge>
    </filter>

    <!-- Soft inner shadow -->
    <filter id="inset" x="-20%" y="-20%" width="140%" height="140%">
      <feOffset dx="0" dy="0"></feOffset>
      <feGaussianBlur stdDeviation="0.6" result="offset-blur"></feGaussianBlur>
      <feComposite operator="out" in="SourceGraphic" in2="offset-blur" result="inverse"></feComposite>
      <feFlood flood-color="#0099cc" flood-opacity="0.3" result="color"></feFlood>
      <feComposite operator="in" in="color" in2="inverse" result="shadow"></feComposite>
      <feComposite operator="over" in="shadow" in2="SourceGraphic"></feComposite>
    </filter>
  </defs>

  <!-- Left elegant pillar -->
  <path d="M18 54
           C17 45, 17 18, 19 12
           C20 10, 22 9, 24 11" fill="none" stroke="url(#cyan)" stroke-width="4" stroke-linecap="round" stroke-linejoin="round" filter="url(#glow)"></path>

  <!-- Curved crossbar -->
  <path d="M18 32
           C27 30, 36 29, 47 32" fill="none" stroke="url(#cyan)" stroke-width="3.5" stroke-linecap="round" filter="url(#glow)"></path>

  <!-- Right pillar with elegant loop & tail -->
  <path d="M46 11
           C48 20, 48 44, 46 52
           C44 57, 38 59, 32 57
           C30 56, 29 55, 30 53
           C31 52, 34 52, 38 53" fill="none" stroke="url(#cyan)" stroke-width="4" stroke-linecap="round" stroke-linejoin="round" filter="url(#glow)"></path>

  <!-- Subtle inner sheen -->
  <path d="M19 12 L24 12 M46 12 L46 52" fill="none" stroke="#E0FFFF" stroke-opacity="0.25" stroke-width="1" filter="url(#inset)"></path>
</svg>
